<?xml version="1.0" encoding="UTF-8" standalone="no"?>
<!-- Created with Inkscape (http://www.inkscape.org/) -->

<svg
   width="100"
   height="100"
   viewBox="0 0 25 25"
   version="1.1"
   id="svg1"
   xmlns="http://www.w3.org/2000/svg"
   xmlns:svg="http://www.w3.org/2000/svg"
   xmlns:rdf="http://www.w3.org/1999/02/22-rdf-syntax-ns#"
   xmlns:cc="http://creativecommons.org/ns#"
   xmlns:dc="http://purl.org/dc/elements/1.1/">
  <defs
     id="defs1" />
  <g
     id="layer1">
    <path
       style="display:inline;fill:#fdfdfd;fill-opacity:1;fill-rule:evenodd;stroke:#d0d0d0;stroke-width:0.25;stroke-linecap:round;stroke-dasharray:none;stroke-opacity:1;paint-order:markers fill stroke"
       id="rect1"
       width="21.25"
       height="21.25"
       x="1.875"
       y="1.875"
       rx="3.2203079e-08"
       d="m 2.9375,1.875 h 19.125 a 1.0625,1.0625 45 0 1 1.0625,1.0625 v 19.125 A 1.0625,1.0625 135 0 1 22.0625,23.125 H 2.9375 A 1.0625,1.0625 45 0 1 1.875,22.0625 V 2.9375 A 1.0625,1.0625 135 0 1 2.9375,1.875 Z" />
    <path
       style="display:none;fill:#e0eef9;fill-opacity:1;fill-rule:evenodd;stroke:#0078d4;stroke-width:0.278787;stroke-linecap:round;stroke-dasharray:none;stroke-opacity:1;paint-order:markers fill stroke"
       id="rect2"
       width="21.221212"
       height="21.221212"
       x="1.8893937"
       y="1.8893937"
       rx="3.2159456e-08"
       d="M 2.9504543,1.8893937 H 22.049545 a 1.0610606,1.0610606 45 0 1 1.061061,1.0610606 V 22.049545 a 1.0610606,1.0610606 135 0 1 -1.061061,1.061061 H 2.9504543 A 1.0610606,1.0610606 45 0 1 1.8893937,22.049545 V 2.9504543 A 1.0610606,1.0610606 135 0 1 2.9504543,1.8893937 Z" />
    <path
       style="display:none;fill:#c8f0ff;fill-opacity:1;fill-rule:evenodd;stroke:#afd7e5;stroke-width:0.25;stroke-linecap:round;stroke-dasharray:none;stroke-opacity:1;paint-order:markers fill stroke"
       id="rect1-5"
       width="21.25"
       height="21.25"
       x="1.875"
       y="1.875"
       rx="3.2203079e-08"
       d="m 2.9375,1.875 h 19.125 a 1.0625,1.0625 45 0 1 1.0625,1.0625 v 19.125 A 1.0625,1.0625 135 0 1 22.0625,23.125 H 2.9375 A 1.0625,1.0625 45 0 1 1.875,22.0625 V 2.9375 A 1.0625,1.0625 135 0 1 2.9375,1.875 Z" />
  </g>
  <g
     id="layer2"
     style="display:inline">
    <path
       style="display:inline;fill:#747474;fill-opacity:1;fill-rule:evenodd;stroke:none;stroke-width:0.25;stroke-linecap:round;stroke-dasharray:none;stroke-opacity:1;paint-order:markers fill stroke"
       id="path3"
       d="m 20.099529,9.2766657 -15.5223653,8.9618423 0,-17.92368425 z"
       transform="matrix(0.71134964,0,0,0.7113493,3.7231613,6.1510503)" />
  </g>
  <metadata
     id="metadata1">
    <rdf:RDF>
      <cc:Work
         rdf:about="">
        <dc:creator>
          <cc:Agent>
            <dc:title>Ignyos</dc:title>
          </cc:Agent>
        </dc:creator>
      </cc:Work>
    </rdf:RDF>
  </metadata>
</svg>
